<svg xmlns="http://www.w3.org/2000/svg" width="30" height="30" fill="currentColor" viewBox="0 0 30 30">
  <g clip-path="url(#a)">
    <path d="M15 30c-5.39 0-10.313-2.813-13.008-7.5-2.695-4.629-2.695-10.313 0-15C4.688 2.871 9.61 0 15 0c5.332 0 10.254 2.871 12.95 7.5 2.695 4.688 2.695 10.371 0 15A14.888 14.888 0 0 1 15 30Zm7.09-15.879a1.38 1.38 0 0 0 0-1.934c-.586-.585-1.465-.585-1.992 0L15 17.285l-5.098-5.098c-.586-.585-1.464-.585-1.992 0a1.283 1.283 0 0 0 0 1.934l6.094 6.094a1.283 1.283 0 0 0 1.934 0l6.152-6.094Z" opacity=".25"/>
    <path d="M14.004 20.215 7.91 14.12a1.283 1.283 0 0 1 0-1.934c.527-.585 1.406-.585 1.992 0L15 17.285l5.098-5.098c.527-.585 1.406-.585 1.992 0a1.38 1.38 0 0 1 0 1.934l-6.152 6.094a1.283 1.283 0 0 1-1.934 0Z"/>
  </g>
  <defs>
    <clipPath id="a">
      <path d="M0 0h30v30H0z"/>
    </clipPath>
  </defs>
</svg>
