<svg xmlns="http://www.w3.org/2000/svg" width="16" height="16" fill="currentColor" viewBox="0 0 16 16">
  <path d="M12.336 3.383h-.024a.552.552 0 0 0-.773 0l-.703.68 1.101 1.101.68-.703c.211-.211.211-.563 0-.797l-.281-.281Zm-5.438 4.64c-.07.047-.117.141-.14.235l-.399 1.36 1.383-.376a.486.486 0 0 0 .235-.14l3.164-3.165-1.079-1.078-3.164 3.164Zm3.844-5.437a1.67 1.67 0 0 1 2.367 0l.305.305a1.67 1.67 0 0 1 0 2.367l-4.64 4.64a1.858 1.858 0 0 1-.727.422l-2.344.657a.478.478 0 0 1-.539-.141.531.531 0 0 1-.164-.54l.68-2.343c.07-.281.234-.539.422-.726l4.64-4.641Zm-6.68.914h2.625a.57.57 0 0 1 .563.563.555.555 0 0 1-.563.562H4.063a.925.925 0 0 0-.937.938v6.375c0 .539.398.937.938.937h6.375a.925.925 0 0 0 .937-.938V9.313c0-.305.234-.563.563-.563a.57.57 0 0 1 .562.563v2.624A2.066 2.066 0 0 1 10.437 14H4.064A2.05 2.05 0 0 1 2 11.937V5.564C2 4.438 2.914 3.5 4.063 3.5Z"/>
</svg>
