<svg xmlns="http://www.w3.org/2000/svg" width="24" height="24" fill="none" viewBox="0 0 24 24">
  <path fill="#04B50B" fill-rule="evenodd" d="M18.5 20a4.5 4.5 0 1 0 0-9 4.5 4.5 0 0 0 0 9Zm2.1-5.148a.5.5 0 1 0-.71-.704l-1.9 1.916-.906-.905a.5.5 0 1 0-.707.707l1.26 1.26a.5.5 0 0 0 .709-.001l2.254-2.273Z" clip-rule="evenodd"/>
  <path fill="#000" fill-opacity=".15" fill-rule="evenodd" d="M12.563 5H5c-1.125 0-2 .906-2 2v10c0 1.125.875 2 2 2h9.257A5.502 5.502 0 0 1 17 10.207v-.77c0-.53-.219-1.062-.594-1.437L14 5.594A2.06 2.06 0 0 0 12.562 5ZM5 10V8c0-.531.438-1 1-1h6c.531 0 1 .469 1 1v2c0 .563-.469 1-1 1H6c-.563 0-1-.438-1-1Zm3.25 4c.375-.594 1.031-1 1.75-1 .688 0 1.344.406 1.719 1 .344.625.344 1.406 0 2A2.02 2.02 0 0 1 10 17a2.032 2.032 0 0 1-1.75-1c-.344-.594-.344-1.375 0-2Z" clip-rule="evenodd"/>
</svg>
