<svg xmlns="http://www.w3.org/2000/svg" width="16" height="16" fill="currentColor" viewBox="0 0 16 16">
  <path d="M10.625 6.875c0-1.336-.727-2.555-1.875-3.234a3.703 3.703 0 0 0-3.75 0 3.72 3.72 0 0 0-1.875 3.234A3.73 3.73 0 0 0 5 10.133c1.148.68 2.578.68 3.75 0a3.78 3.78 0 0 0 1.875-3.258Zm-.727 3.844a4.911 4.911 0 0 1-3.023 1.031A4.871 4.871 0 0 1 2 6.875C2 4.203 4.18 2 6.875 2c2.672 0 4.875 2.203 4.875 4.875a4.948 4.948 0 0 1-1.055 3.047l3.14 3.117c.212.234.212.586 0 .797-.233.234-.585.234-.796 0L9.9 10.719Z"/>
</svg>
